<?xml version="1.0" standalone="no"?>
<!DOCTYPE svg PUBLIC "-//W3C//DTD SVG 20010904//EN"
 "http://www.w3.org/TR/2001/REC-SVG-20010904/DTD/svg10.dtd">
<svg version="1.0" xmlns="http://www.w3.org/2000/svg"
 width="700.000000pt" height="700.000000pt" viewBox="0 0 700.000000 700.000000"
 preserveAspectRatio="xMidYMid meet">
<metadata>
Created by potrace 1.11, written by Peter Selinger 2001-2013
</metadata>
<g transform="translate(0.000000,700.000000) scale(0.100000,-0.100000)"
fill="#000000" stroke="none">
<path d="M2358 6990 c-335 -57 -617 -296 -722 -610 -38 -116 -51 -218 -51
-412 0 -98 -2 -179 -5 -179 -3 -1 -18 -3 -34 -5 -139 -16 -254 -71 -351 -168
-81 -82 -127 -163 -155 -272 -18 -70 -20 -106 -17 -398 2 -306 3 -323 24 -366
12 -25 30 -55 40 -66 17 -20 18 -53 17 -640 -1 -341 -2 -624 -3 -630 0 -6 -29
-28 -63 -50 -236 -145 -427 -389 -517 -662 -61 -181 -60 -163 -61 -1370 l0
-1103 29 -30 29 -29 2982 0 2982 0 29 29 29 30 0 1108 c-1 941 -3 1120 -16
1188 -66 353 -272 661 -563 840 -34 21 -62 43 -62 49 -1 6 -2 290 -3 631 l-1
620 32 42 c51 68 55 111 51 468 -4 314 -4 321 -29 386 -38 100 -75 157 -148
229 -95 94 -225 154 -353 164 l-33 3 -1 364 c-1 407 -5 440 -70 558 -64 117
-167 206 -299 258 l-70 28 -1285 1 c-707 1 -1306 -2 -1332 -6z m2632 -198 c81
-32 162 -108 202 -190 l33 -67 3 -372 c3 -354 2 -373 -15 -374 -10 0 -67 0
-127 0 l-108 1 -82 87 c-285 304 -637 505 -1021 582 -276 55 -603 46 -855 -24
-30 -9 -62 -17 -70 -20 -53 -13 -209 -76 -294 -119 -230 -117 -418 -264 -598
-469 l-33 -37 -95 -1 c-52 0 -110 0 -127 0 l-33 1 0 184 c0 201 11 280 55 388
75 183 240 342 430 411 116 43 143 43 1440 42 l1240 -1 55 -22z m-1358 -486
c659 -39 1263 -507 1482 -1147 62 -182 88 -331 91 -530 6 -389 -109 -737 -346
-1055 -279 -371 -725 -622 -1189 -669 -66 -6 -295 -7 -330 -1 -14 3 -52 7 -85
11 -74 8 -259 55 -345 88 -389 148 -711 425 -907 782 -62 113 -136 300 -159
400 -38 165 -49 263 -48 435 1 209 21 331 86 525 207 625 766 1080 1418 1155
92 10 205 17 225 13 6 -1 54 -4 107 -7z m-1742 -706 c0 -3 -9 -20 -20 -38 -23
-37 -89 -168 -113 -222 -45 -103 -104 -307 -123 -425 -4 -27 -9 -57 -10 -65
-2 -8 -6 -67 -10 -130 -4 -63 -10 -117 -14 -120 -12 -7 -279 -4 -322 4 -70 13
-72 24 -73 341 -1 154 2 302 7 330 17 111 106 233 207 285 24 12 69 27 101 33
55 12 370 17 370 7z m3610 -10 c96 -26 189 -96 237 -177 53 -91 59 -141 58
-458 -1 -310 -3 -320 -52 -346 -21 -12 -337 -19 -347 -8 -2 2 -6 60 -10 128
-4 68 -8 127 -11 130 -2 4 -6 28 -9 53 -21 170 -125 461 -230 640 -14 25 -24
47 -21 49 10 11 342 1 385 -11z m-3879 -1197 c1 -13 2 -26 3 -30 1 -5 6 -35
10 -67 11 -80 67 -283 105 -379 64 -161 152 -317 252 -449 33 -43 59 -79 59
-81 0 -3 -96 -5 -212 -5 -199 -1 -311 -6 -347 -16 -9 -3 -33 -7 -54 -10 -21
-3 -62 -14 -92 -24 l-55 -19 -1 24 c0 12 0 241 0 508 0 267 0 504 0 528 l1 42
165 0 c164 0 165 0 166 -22z m4089 -58 c2 -363 -1 -1009 -3 -1012 -2 -1 -46 8
-98 21 -116 30 -224 39 -470 39 -104 0 -189 2 -189 5 0 2 22 32 48 66 147 188
274 446 331 671 22 87 25 103 43 215 l12 75 163 0 163 0 0 -80z m-4060 -1145
c4 -6 5 -2915 1 -2991 -1 -14 -53 -15 -503 -15 l-503 1 -1 1024 c-1 1103 0
1114 52 1269 137 408 489 680 929 719 11 1 22 -2 25 -7z m646 -42 c140 -119
379 -256 561 -321 79 -29 243 -74 300 -83 19 -3 43 -7 53 -9 146 -28 545 -21
639 11 8 2 30 7 50 10 45 7 255 70 301 91 200 88 351 178 492 292 l77 62 151
-3 151 -3 -103 -102 c-57 -57 -134 -128 -173 -158 -233 -186 -532 -332 -819
-399 -184 -44 -249 -51 -466 -51 -204 0 -275 5 -395 30 -226 47 -409 112 -595
212 -207 112 -375 242 -555 431 l-39 42 156 -1 156 0 58 -51z m3177 38 c311
-41 621 -267 770 -561 36 -70 82 -199 89 -244 l3 -25 -235 -1 c-129 -1 -242
-5 -251 -8 -8 -4 -23 -21 -32 -36 -15 -26 -17 -65 -17 -334 0 -197 4 -315 11
-336 19 -53 41 -58 279 -59 118 -1 227 -1 241 -1 l26 -1 -1 -697 -1 -698 -502
-1 c-277 0 -503 2 -504 5 -3 18 -4 2988 -1 2998 4 11 29 11 125 -1z m-3458
-332 c261 -228 574 -393 918 -483 62 -17 130 -33 152 -36 22 -4 47 -8 55 -10
8 -2 44 -6 80 -10 36 -4 72 -9 80 -11 8 -1 36 -3 63 -3 l47 -1 -2 -1057 -3
-1058 -780 -1 c-429 0 -782 3 -785 7 -4 5 -5 2722 -1 2814 1 16 12 9 54 -35
29 -30 84 -82 122 -116z m3148 -1241 c-1 -769 -2 -1405 -2 -1414 -1 -14 -81
-15 -786 -15 l-785 0 0 1058 0 1058 48 1 c26 0 54 2 62 4 8 1 42 5 75 9 88 9
118 14 250 46 407 97 797 317 1079 608 27 28 52 49 55 47 3 -1 5 -632 4 -1402z
m1188 558 c3 -1 6 -92 5 -203 l-1 -202 -170 1 c-93 1 -177 2 -185 2 -13 1 -15
29 -15 199 0 182 1 197 18 202 14 4 320 5 348 1z"/>
<path d="M4645 6710 c-11 -4 -29 -18 -40 -30 -18 -20 -20 -37 -20 -251 l0
-229 28 -27 27 -28 206 -2 c287 -4 290 -2 282 210 -4 108 -8 129 -32 177 -44
87 -119 152 -202 175 -39 10 -225 14 -249 5z m232 -198 c35 -19 61 -64 66
-116 3 -27 3 -54 1 -60 -3 -7 -35 -11 -87 -11 l-82 0 -3 99 c-2 67 1 102 9
106 13 9 65 -2 96 -18z"/>
<path d="M3397 5704 c-1 -1 -42 -5 -92 -8 -553 -40 -963 -258 -1159 -618 -64
-116 -108 -255 -122 -385 -73 -657 315 -1274 952 -1516 46 -18 210 -61 265
-71 142 -25 379 -26 509 -2 14 3 36 7 50 9 94 17 235 65 350 120 413 197 713
574 806 1011 41 196 37 424 -11 605 -84 313 -290 547 -615 698 -50 23 -211 79
-250 87 -14 3 -68 14 -120 25 -111 23 -154 29 -268 37 -75 6 -291 11 -295 8z
m393 -199 c19 -3 82 -15 139 -26 512 -101 819 -391 866 -818 68 -619 -350
-1196 -980 -1355 -107 -26 -128 -29 -300 -31 -224 -4 -357 22 -558 111 -551
241 -867 857 -726 1414 69 271 268 482 568 602 75 29 183 61 250 73 19 3 37 7
40 9 6 4 57 11 181 26 71 8 464 5 520 -5z"/>
<path d="M3711 5364 c-17 -7 -36 -24 -42 -38 -14 -31 -4 -88 19 -110 21 -18
95 -34 138 -30 60 6 95 90 59 141 -27 38 -122 59 -174 37z"/>
<path d="M4072 5248 c-39 -25 -53 -78 -29 -117 8 -14 48 -44 88 -66 196 -105
310 -297 323 -541 2 -45 9 -91 16 -103 13 -26 66 -51 89 -44 72 22 85 51 77
169 -20 312 -175 558 -432 687 -71 36 -95 39 -132 15z"/>
<path d="M3880 1654 c-49 -21 -53 -40 -54 -269 0 -115 3 -222 7 -237 16 -62
10 -61 545 -62 450 0 489 2 514 18 15 10 30 28 34 39 12 37 7 453 -5 476 -24
45 -31 45 -534 46 -353 1 -485 -2 -507 -11z m833 -173 l37 -1 0 -105 0 -105
-370 0 -370 0 0 104 0 105 33 3 c25 2 481 1 670 -1z"/>
</g>
</svg>
